<?xml version="1.0" encoding="UTF-8"?>
<svg id="Camada_1" data-name="Camada 1" xmlns="http://www.w3.org/2000/svg" viewBox="0 0 128 128">
  <path d="M50.1,38.73c-12.01,12.49-12.8,33.92-2.84,47.18,4.51,6,10.44,10.07,17.55,13.32-15.41,5.64-32.62.03-42.22-13.01s-9.79-31.22.07-44.51,26.42-18.55,42.15-12.95c-5.51,2.61-10.51,5.6-14.71,9.97Z"/>
  <path d="M112.7,76.1c-6.45,19.36-27.79,30.02-47.36,23.12,10.51-4.39,18.57-12.05,22.46-23.09l24.9-.03Z"/>
  <path d="M112.53,50.84l-24.76.04c-4.07-10.16-11.5-17.64-21.97-21.81,3.13-1.62,6.35-2.27,9.75-2.43,15.67-.71,31.61,8.51,36.98,24.2Z"/>
</svg>